<svg width="43" height="43" viewBox="0 0 43 43" fill="none" xmlns="http://www.w3.org/2000/svg">
<path d="M23.4506 16.3925L16.3925 23.4506C16.2271 23.6146 16.0958 23.8098 16.0062 24.0248C15.9166 24.2398 15.8705 24.4704 15.8705 24.7034C15.8705 24.9363 15.9166 25.167 16.0062 25.382C16.0958 25.597 16.2271 25.7922 16.3925 25.9562C16.5565 26.1216 16.7517 26.2529 16.9667 26.3424C17.1817 26.432 17.4123 26.4781 17.6453 26.4781C17.8782 26.4781 18.1088 26.432 18.3239 26.3424C18.5389 26.2529 18.734 26.1216 18.8981 25.9562L25.9562 18.8981C26.2885 18.5658 26.4751 18.1152 26.4751 17.6453C26.4751 17.1754 26.2885 16.7247 25.9562 16.3925C25.6239 16.0602 25.1733 15.8735 24.7034 15.8735C24.2335 15.8735 23.7828 16.0602 23.4506 16.3925Z" fill="white"/>
<path d="M21.6684 30.7027L19.4098 32.9437C18.1418 34.2502 16.4373 35.0443 14.6214 35.1745C12.8054 35.3046 11.0051 34.7618 9.56373 33.6495C8.80193 33.0217 8.18028 32.2412 7.73892 31.3582C7.29757 30.4753 7.04633 29.5096 7.00143 28.5235C6.95653 27.5374 7.11898 26.5529 7.47827 25.6334C7.83756 24.714 8.3857 23.8802 9.0873 23.1859L11.5929 20.6626C11.7583 20.4985 11.8896 20.3034 11.9792 20.0884C12.0688 19.8733 12.1149 19.6427 12.1149 19.4098C12.1149 19.1768 12.0688 18.9462 11.9792 18.7312C11.8896 18.5161 11.7583 18.321 11.5929 18.157C11.4289 17.9916 11.2337 17.8603 11.0187 17.7707C10.8037 17.6811 10.5731 17.635 10.3401 17.635C10.1072 17.635 9.87654 17.6811 9.66152 17.7707C9.4465 17.8603 9.25134 17.9916 9.0873 18.157L6.84636 20.4155C4.95859 22.2436 3.79829 24.6946 3.58087 27.3134C3.36344 29.9322 4.10367 32.5409 5.66412 34.6553C6.59029 35.8568 7.76151 36.8475 9.09999 37.5615C10.4385 38.2756 11.9136 38.6967 13.4273 38.7968C14.941 38.8969 16.4587 38.6738 17.8796 38.1423C19.3005 37.6108 20.592 36.783 21.6684 35.714L24.174 33.2084C24.5063 32.8761 24.6929 32.4254 24.6929 31.9555C24.6929 31.4856 24.5063 31.035 24.174 30.7027C23.8417 30.3705 23.3911 30.1838 22.9212 30.1838C22.4513 30.1838 22.0006 30.3705 21.6684 30.7027Z" fill="white"/>
<path d="M34.6906 5.68187C32.5616 4.1052 29.9316 3.35744 27.2916 3.57825C24.6517 3.79905 22.1824 4.97333 20.345 6.88175L18.4393 8.82272C18.2215 8.98107 18.0393 9.18339 17.9047 9.41658C17.77 9.64978 17.6858 9.90866 17.6575 10.1765C17.6292 10.4443 17.6575 10.715 17.7405 10.9712C17.8235 11.2274 17.9594 11.4633 18.1393 11.6636C18.3033 11.829 18.4985 11.9603 18.7135 12.0498C18.9285 12.1394 19.1592 12.1856 19.3921 12.1856C19.6251 12.1856 19.8557 12.1394 20.0707 12.0498C20.2857 11.9603 20.4809 11.829 20.6449 11.6636L22.9388 9.35208C24.1997 8.03983 25.9022 7.24142 27.7174 7.11106C29.5326 6.98071 31.3317 7.52766 32.7672 8.64627C33.5347 9.27409 34.1613 10.0566 34.6061 10.9427C35.051 11.8289 35.3041 12.7988 35.3491 13.7894C35.394 14.7799 35.2298 15.7688 34.867 16.6916C34.5042 17.6144 33.9511 18.4504 33.2436 19.1452L30.738 21.6685C30.5726 21.8325 30.4414 22.0277 30.3518 22.2427C30.2622 22.4577 30.2161 22.6883 30.2161 22.9213C30.2161 23.1542 30.2622 23.3849 30.3518 23.5999C30.4414 23.8149 30.5726 24.0101 30.738 24.1741C30.9021 24.3395 31.0972 24.4708 31.3122 24.5603C31.5273 24.6499 31.7579 24.696 31.9908 24.696C32.2238 24.696 32.4544 24.6499 32.6694 24.5603C32.8844 24.4708 33.0796 24.3395 33.2436 24.1741L35.7493 21.6685C36.8153 20.5923 37.6405 19.3019 38.1703 17.8828C38.7 16.4636 38.9222 14.9481 38.8221 13.4366C38.722 11.9251 38.3019 10.4522 37.5897 9.11526C36.8774 7.77837 35.8892 6.60807 34.6906 5.68187Z" fill="white"/>
</svg>
