<svg width="43" height="40" viewBox="0 0 43 40" fill="none" xmlns="http://www.w3.org/2000/svg">
<path d="M21.0298 1.6545C15.9712 1.60597 11.0991 3.45535 7.48437 6.7962C3.86962 10.137 1.80796 14.696 1.75247 19.4711C1.77196 23.2448 3.05797 26.9155 5.42578 29.9561C7.79359 32.9967 11.1214 35.2507 14.9311 36.3943C15.895 36.5598 16.2455 36.0138 16.2455 35.5341C16.2455 35.0544 16.2455 33.9956 16.2455 32.5068C10.8829 33.5821 9.74379 30.1246 9.74379 30.1246C9.3868 29.0392 8.62786 28.1114 7.60576 27.5109C5.85328 26.419 7.74596 26.4356 7.74596 26.4356C8.35171 26.512 8.93126 26.7169 9.44115 27.0349C9.95104 27.353 10.378 27.7758 10.6901 28.2718C11.234 29.162 12.1263 29.8151 13.1752 30.0904C14.224 30.3658 15.3454 30.2414 16.2981 29.7441C16.396 28.8382 16.8306 27.9943 17.5248 27.362C13.2487 26.9153 8.7624 25.3934 8.7624 18.5612C8.72416 16.779 9.42176 15.0527 10.7077 13.7473C10.122 12.2172 10.1912 10.5319 10.9004 9.04912C10.9004 9.04912 12.5302 8.56938 16.1579 10.8688C19.3157 10.0745 22.6387 10.0745 25.7965 10.8688C29.4767 8.56938 31.054 9.04912 31.054 9.04912C31.7632 10.5319 31.8324 12.2172 31.2467 13.7473C32.5625 15.0287 33.2979 16.7435 33.2971 18.5281C33.2971 25.3768 28.7757 26.8822 24.5347 27.3289C24.9991 27.7545 25.3578 28.2719 25.5851 28.844C25.8123 29.4161 25.9025 30.0286 25.8491 30.6374V35.5176C25.8491 35.5176 26.1996 36.5598 27.1635 36.3778C30.9624 35.2271 34.279 32.9726 36.6395 29.9363C38.9999 26.9 40.2836 23.2372 40.3071 19.4711C40.2516 14.696 38.1899 10.137 34.5752 6.7962C30.9604 3.45535 26.0884 1.60597 21.0298 1.6545Z" fill="white"/>
</svg>
