<svg width="58" height="58" viewBox="0 0 58 58" fill="none" xmlns="http://www.w3.org/2000/svg">
<path d="M28.8 0.00154273C21.2425 -0.0788389 13.9638 2.98476 8.56337 8.51905C3.16299 14.0533 0.0828921 21.6055 0 29.5157C0.0291204 35.767 1.9504 41.8478 5.48787 46.8847C9.02535 51.9216 13.997 55.6555 19.6887 57.55C21.1287 57.824 21.6524 56.9197 21.6524 56.1249C21.6524 55.3302 21.6524 53.5764 21.6524 51.11C13.6407 52.8913 11.9389 47.1638 11.9389 47.1638C11.4056 45.3659 10.2717 43.8289 8.74473 42.834C6.12655 41.0253 8.95418 41.0527 8.95418 41.0527C9.85916 41.1794 10.725 41.5188 11.4868 42.0456C12.2485 42.5724 12.8865 43.2729 13.3527 44.0946C14.1652 45.5693 15.4984 46.6511 17.0653 47.1072C18.6323 47.5634 20.3076 47.3574 21.7309 46.5335C21.8773 45.0328 22.5266 43.6349 23.5636 42.5874C17.1753 41.8475 10.4727 39.3263 10.4727 28.0084C10.4156 25.0561 11.4578 22.1964 13.3789 20.0339C12.504 17.4992 12.6073 14.7074 13.6669 12.2511C13.6669 12.2511 16.1018 11.4564 21.5215 15.2656C26.2391 13.9497 31.2038 13.9497 35.9215 15.2656C41.4196 11.4564 43.776 12.2511 43.776 12.2511C44.8356 14.7074 44.9389 17.4992 44.064 20.0339C46.0297 22.1567 47.1285 24.9973 47.1273 27.9536C47.1273 39.2989 40.3724 41.7927 34.0364 42.5326C34.7301 43.2376 35.266 44.0947 35.6056 45.0424C35.9451 45.9901 36.0798 47.0047 36 48.0134V56.0975C36 56.0975 36.5236 57.824 37.9636 57.5225C43.6392 55.6163 48.5941 51.8816 52.1207 46.8518C55.6472 41.822 57.5649 35.7544 57.6 29.5157C57.5171 21.6055 54.437 14.0533 49.0366 8.51905C43.6362 2.98476 36.3575 -0.0788389 28.8 0.00154273Z" fill="white"/>
</svg>
