<svg width="70" height="59" viewBox="0 0 70 59" fill="none" xmlns="http://www.w3.org/2000/svg">
<path d="M16.452 45.7855C15.8686 45.6848 15.4019 45.5842 14.8185 45.383C14.2351 45.1818 13.7684 45.0812 13.3016 44.88C12.2515 44.4775 11.3181 43.9745 10.3846 43.3709C8.51771 42.2642 7.00086 40.755 5.83405 38.9441C4.66724 37.2338 3.96715 35.2216 3.85047 33.31C3.73379 32.3039 3.85047 31.3985 3.96715 30.3924C4.08383 29.8893 4.20051 29.4869 4.3172 28.9839C4.43388 28.4808 4.66724 28.0784 4.78392 27.5754L4.9006 28.9839C4.9006 29.4869 5.01728 29.8893 5.13396 30.3924C5.25064 31.2979 5.48401 32.2033 5.71737 33.0082C6.18409 34.7185 6.88418 36.3283 7.93431 37.8374C8.98444 39.3465 10.1512 40.755 11.6681 42.0629C12.3682 42.6666 13.1849 43.2702 14.0017 43.8739C14.3518 44.1757 14.8185 44.4775 15.2852 44.7794L16.452 45.7855ZM16.102 49.4074C15.7519 49.6086 15.2852 49.7092 14.8185 49.8098C14.3518 49.9104 14.0017 50.011 13.535 50.011C12.7182 50.1116 11.7848 50.2122 10.8513 50.1116C9.10112 50.011 7.23422 49.6086 5.71737 48.9043C4.08383 48.2001 2.68366 47.0934 1.75021 45.7855C1.28349 45.1818 0.816767 44.4775 0.466724 43.7733C0.350043 43.4715 0.233362 43.069 0.116681 42.6666C0.116681 42.3648 0 42.063 0 41.6605C0.350043 41.9623 0.583405 42.1636 0.816767 42.4654C1.16681 42.7672 1.40017 43.069 1.63353 43.2702C2.21694 43.7733 2.68366 44.2763 3.26707 44.6788C4.43388 45.5842 5.60069 46.3891 7.00086 46.9928C8.28435 47.5964 9.8012 48.0994 11.2014 48.5019C11.9015 48.7031 12.7182 48.8037 13.535 49.0049C13.885 49.1055 14.3518 49.1055 14.7018 49.2061C15.2852 49.3067 15.6353 49.3067 16.102 49.4074ZM42.4719 0.511737C43.0553 0.612345 43.522 0.813561 44.1054 1.01478C44.6888 1.21599 45.1555 1.41721 45.6223 1.61843C46.6724 2.12147 47.6058 2.62451 48.5393 3.22816C50.4062 4.43546 51.923 6.04519 52.9732 7.85614C54.0233 9.66709 54.6067 11.6793 54.6067 13.5908C54.6067 14.5969 54.49 15.5024 54.2566 16.5085C54.14 17.0115 54.0233 17.4139 53.7899 17.917C53.5566 18.42 53.4399 18.8224 53.2065 19.2249L53.0898 17.8164C53.0898 17.3133 53.0898 16.9109 52.9732 16.4078L52.6231 13.6914C52.2731 11.9811 51.573 10.2707 50.6395 8.66101C49.7061 7.05127 48.5393 5.64276 47.1391 4.33485C46.439 3.63059 45.6223 3.02694 44.9222 2.32269C44.5721 2.02086 44.1054 1.71904 43.6387 1.41721L42.4719 0.511737ZM52.6231 0.109303C53.0898 0.209912 53.4399 0.31052 53.7899 0.511737C54.14 0.612345 54.6067 0.813561 54.9567 1.01478C55.6568 1.41721 56.3569 1.81964 57.057 2.32269C58.3405 3.32877 59.3906 4.53607 59.974 5.94458C60.6741 7.3531 60.9075 8.86222 60.6741 10.3713C60.5574 11.0756 60.3241 11.7799 60.0907 12.4841C59.974 12.7859 59.7407 13.1884 59.624 13.4902C59.3906 13.792 59.2739 14.0939 58.9239 14.3957V12.3835C58.9239 11.6793 58.8072 11.0756 58.8072 10.472C58.5738 9.16405 58.3405 7.95675 57.7571 6.85006C57.1737 5.64276 56.4736 4.63668 55.6568 3.52998C55.1901 3.02694 54.7234 2.42329 54.2566 1.92025C54.0233 1.61843 53.7899 1.41721 53.4399 1.11539C53.2065 0.612345 52.8565 0.31052 52.6231 0.109303Z" fill="#42ADE2"/>
<path d="M9.33447 15.0999C7.00085 16.0053 6.18409 18.4199 7.23422 20.4321L21.936 46.8921L30.1037 43.572L15.4019 17.0114C14.3518 14.9993 11.6681 14.0938 9.33447 15.0999ZM47.9559 36.127L56.5903 32.6057L39.7882 2.42323C38.6214 0.411068 35.8211 -0.494406 33.3708 0.511676C31.0371 1.51776 29.987 3.93236 31.1538 6.04513L47.9559 36.127Z" fill="#B47D56"/>
<path d="M33.4874 0.411008C33.2541 0.511616 33.0207 0.612224 32.7873 0.813441C35.0043 0.310399 37.3379 1.21587 38.388 3.02682L55.1901 33.2093L56.7069 32.6057L39.9049 2.42317C38.7381 0.3104 35.9377 -0.595075 33.4874 0.411008Z" fill="#935E3E"/>
<path d="M30.1037 43.4714L39.0881 39.7489L21.936 8.9628C20.7692 6.85003 17.7355 5.84395 15.2852 6.85003C12.8349 7.85611 11.7848 10.4719 12.9516 12.5847L30.1037 43.4714Z" fill="#B47D56"/>
<path d="M15.2852 6.95064C15.0518 7.05124 14.8185 7.15185 14.5851 7.35307C16.8021 6.85003 19.369 7.7555 20.4192 9.66706L31.0371 28.8832L33.6041 30.1911L21.936 9.06341C20.7692 6.85003 17.8522 5.94455 15.2852 6.95064Z" fill="#935E3E"/>
<path d="M37.6879 37.3342L46.6724 33.6117L29.5203 2.82556C28.3535 0.712789 25.3198 -0.293294 22.8695 0.813397C20.4192 1.81948 19.369 4.43529 20.5358 6.54807L37.6879 37.3342Z" fill="#B47D56"/>
<path d="M22.8695 0.712727C22.6361 0.813335 22.4028 1.01455 22.1694 1.11516C24.3864 0.612118 26.9533 1.51759 28.0035 3.42915L40.0216 25.1605L42.5886 26.4684L29.5203 2.82556C28.3535 0.612181 25.3198 -0.293356 22.8695 0.712727ZM9.33447 15.0999C9.10111 15.2005 8.86778 15.3009 8.63442 15.5021C10.7347 14.9991 12.9516 15.9046 13.8851 17.7155L22.6361 33.511L25.2031 34.8189L15.4019 17.1119C14.3518 14.9991 11.6681 14.0938 9.33447 15.0999Z" fill="#935E3E"/>
<path d="M68.6084 12.0815C65.458 9.96874 60.3241 12.2827 57.7571 19.5265C56.0069 24.5569 55.7735 26.0661 52.0397 27.5752L49.9395 23.8527C49.9395 23.8527 16.8021 37.636 18.0856 39.8494C18.0856 39.8494 22.0527 50.5139 28.8202 55.4437C38.8548 62.8887 62.3077 54.9406 63.3578 35.7245C63.9412 24.5569 71.9922 14.3955 68.6084 12.0815Z" fill="#B47D56"/>
<path d="M68.6084 12.0815C68.025 11.6791 67.3249 11.478 66.6249 11.3774C66.7415 11.478 66.9749 11.478 67.0916 11.5786C70.592 13.8926 66.9749 19.2248 64.9913 24.054C63.3578 27.8771 61.9576 31.8009 62.191 35.624C63.1244 52.325 43.6387 60.273 31.9706 57.2548C43.4054 61.3797 64.6413 53.5322 63.7078 36.127C63.4745 32.3039 64.758 28.5814 66.5082 24.5571C68.3751 19.7279 71.9922 14.3955 68.6084 12.0815Z" fill="#935E3E"/>
<path d="M53.0899 27.1727C45.8557 27.8769 35.2377 36.8311 42.7053 46.5901C37.2213 36.7304 46.2057 30.0903 51.9231 27.7763C52.5065 27.3739 53.0899 27.1727 53.0899 27.1727Z" fill="#935E3E"/>
</svg>
