<svg width="61" height="60" viewBox="0 0 61 60" fill="none" xmlns="http://www.w3.org/2000/svg">
<path d="M38.475 21.0001C36.5589 20.9935 34.6603 21.3648 32.8878 22.0928C31.1153 22.8207 29.5038 23.891 28.1454 25.2425C26.787 26.5939 25.7085 28.1999 24.9714 29.9686C24.2343 31.7373 23.8533 33.634 23.85 35.5501V50.2501C23.85 50.8468 24.087 51.4191 24.509 51.8411C24.931 52.263 25.5033 52.5001 26.1 52.5001H31.35C31.9467 52.5001 32.519 52.263 32.941 51.8411C33.3629 51.4191 33.6 50.8468 33.6 50.2501V35.5501C33.5995 34.8686 33.7426 34.1946 34.0201 33.5722C34.2975 32.9497 34.703 32.3927 35.2101 31.9374C35.7173 31.4822 36.3147 31.1389 36.9634 30.93C37.6121 30.7212 38.2975 30.6513 38.975 30.7251C40.19 30.8781 41.3066 31.4717 42.113 32.3934C42.9194 33.315 43.3596 34.5005 43.35 35.7251V50.2501C43.35 50.8468 43.587 51.4191 44.009 51.8411C44.431 52.263 45.0033 52.5001 45.6 52.5001H50.85C51.4467 52.5001 52.019 52.263 52.441 51.8411C52.8629 51.4191 53.1 50.8468 53.1 50.2501V35.5501C53.0967 33.634 52.7156 31.7373 51.9786 29.9686C51.2415 28.1999 50.163 26.5939 48.8046 25.2425C47.4462 23.891 45.8346 22.8207 44.0622 22.0928C42.2897 21.3648 40.3911 20.9935 38.475 21.0001Z" fill="white"/>
<path d="M17.1 23.25H10.35C9.1074 23.25 8.10004 24.2574 8.10004 25.5V50.25C8.10004 51.4926 9.1074 52.5 10.35 52.5H17.1C18.3427 52.5 19.35 51.4926 19.35 50.25V25.5C19.35 24.2574 18.3427 23.25 17.1 23.25Z" fill="white"/>
<path d="M13.725 18.75C16.8316 18.75 19.35 16.2316 19.35 13.125C19.35 10.0184 16.8316 7.5 13.725 7.5C10.6184 7.5 8.10001 10.0184 8.10001 13.125C8.10001 16.2316 10.6184 18.75 13.725 18.75Z" fill="white"/>
</svg>
